<svg width="100" height="100" viewBox="0 0 100 100" xmlns="http://www.w3.org/2000/svg" aria-labelledby="logoTitle logoDesc">
  <title id="logoTitle">Work Progress Logo</title>
  <desc id="logoDesc">A logo showing curly braces representing code, with a progress bar underneath indicating work progress.</desc>

  <path d="M 35 20 C 25 20, 20 25, 20 35 L 20 45 C 20 50, 25 55, 30 55" fill="none" stroke="#cccccc" stroke-width="5" stroke-linecap="round"/>
  <path d="M 30 55 C 25 55, 20 60, 20 65 L 20 75 C 20 85, 25 90, 35 90" fill="none" stroke="#cccccc" stroke-width="5" stroke-linecap="round"/>

  <path d="M 65 20 C 75 20, 80 25, 80 35 L 80 45 C 80 50, 75 55, 70 55" fill="none" stroke="#cccccc" stroke-width="5" stroke-linecap="round"/>
  <path d="M 70 55 C 75 55, 80 60, 80 65 L 80 75 C 80 85, 75 90, 65 90" fill="none" stroke="#cccccc" stroke-width="5" stroke-linecap="round"/>

  <rect x="25" y="75" width="50" height="10" rx="3" ry="3" fill="none" stroke="#666666" stroke-width="2"/>

  <rect x="26" y="76" width="35" height="8" rx="2" ry="2" fill="#3399ff" />

</svg>